<mxfile host="app.diagrams.net" agent="Mozilla/5.0 (Windows NT 10.0; Win64; x64) AppleWebKit/537.36 (KHTML, like Gecko) Chrome/131.0.0.0 Safari/537.36 OPR/116.0.0.0 (Edition ms_store)" version="26.0.10" pages="2">
  <diagram name="Страница — 1" id="1nDWuRxfmPX1ly6JsfIB">
    <mxGraphModel dx="1048" dy="551" grid="0" gridSize="10" guides="1" tooltips="1" connect="1" arrows="1" fold="1" page="0" pageScale="1" pageWidth="827" pageHeight="1169" math="0" shadow="0">
      <root>
        <mxCell id="0" />
        <mxCell id="1" parent="0" />
        <mxCell id="rmp42HP78Bf8SFEeft3H-1" value="Пользователь" style="shape=umlActor;verticalLabelPosition=bottom;verticalAlign=top;html=1;outlineConnect=0;" vertex="1" parent="1">
          <mxGeometry x="399" y="525" width="30" height="60" as="geometry" />
        </mxCell>
        <mxCell id="rmp42HP78Bf8SFEeft3H-3" value="Авторизация" style="ellipse;whiteSpace=wrap;html=1;" vertex="1" parent="1">
          <mxGeometry x="399" y="380" width="120" height="80" as="geometry" />
        </mxCell>
        <mxCell id="rmp42HP78Bf8SFEeft3H-4" value="Управление фанфиками" style="ellipse;whiteSpace=wrap;html=1;" vertex="1" parent="1">
          <mxGeometry x="510" y="515" width="120" height="80" as="geometry" />
        </mxCell>
        <mxCell id="rmp42HP78Bf8SFEeft3H-10" value="Редактирование&amp;nbsp;&lt;div&gt;фанфика&lt;/div&gt;" style="ellipse;whiteSpace=wrap;html=1;" vertex="1" parent="1">
          <mxGeometry x="620" y="410" width="120" height="80" as="geometry" />
        </mxCell>
        <mxCell id="rmp42HP78Bf8SFEeft3H-11" value="Удаление фанфика" style="ellipse;whiteSpace=wrap;html=1;" vertex="1" parent="1">
          <mxGeometry x="650" y="505" width="120" height="80" as="geometry" />
        </mxCell>
        <mxCell id="rmp42HP78Bf8SFEeft3H-12" value="Добавление фанфика" style="ellipse;whiteSpace=wrap;html=1;" vertex="1" parent="1">
          <mxGeometry x="610" y="610" width="120" height="80" as="geometry" />
        </mxCell>
        <mxCell id="rmp42HP78Bf8SFEeft3H-13" value="Управление чат-фанфиками" style="ellipse;whiteSpace=wrap;html=1;" vertex="1" parent="1">
          <mxGeometry x="460" y="660" width="120" height="80" as="geometry" />
        </mxCell>
        <mxCell id="rmp42HP78Bf8SFEeft3H-14" value="" style="endArrow=classic;html=1;rounded=0;exitX=1;exitY=0.3333333333333333;exitDx=0;exitDy=0;exitPerimeter=0;entryX=0.433;entryY=1.047;entryDx=0;entryDy=0;entryPerimeter=0;" edge="1" parent="1" source="rmp42HP78Bf8SFEeft3H-1" target="rmp42HP78Bf8SFEeft3H-3">
          <mxGeometry width="50" height="50" relative="1" as="geometry">
            <mxPoint x="390" y="530" as="sourcePoint" />
            <mxPoint x="440" y="480" as="targetPoint" />
          </mxGeometry>
        </mxCell>
        <mxCell id="rmp42HP78Bf8SFEeft3H-15" value="" style="endArrow=classic;html=1;rounded=0;exitX=1;exitY=0.3333333333333333;exitDx=0;exitDy=0;exitPerimeter=0;entryX=0;entryY=0.5;entryDx=0;entryDy=0;" edge="1" parent="1" source="rmp42HP78Bf8SFEeft3H-1" target="rmp42HP78Bf8SFEeft3H-4">
          <mxGeometry width="50" height="50" relative="1" as="geometry">
            <mxPoint x="439" y="555" as="sourcePoint" />
            <mxPoint x="461" y="474" as="targetPoint" />
          </mxGeometry>
        </mxCell>
        <mxCell id="rmp42HP78Bf8SFEeft3H-16" value="" style="endArrow=classic;html=1;rounded=0;exitX=1;exitY=0.3333333333333333;exitDx=0;exitDy=0;exitPerimeter=0;" edge="1" parent="1" source="rmp42HP78Bf8SFEeft3H-1" target="rmp42HP78Bf8SFEeft3H-13">
          <mxGeometry width="50" height="50" relative="1" as="geometry">
            <mxPoint x="439" y="555" as="sourcePoint" />
            <mxPoint x="520" y="565" as="targetPoint" />
          </mxGeometry>
        </mxCell>
        <mxCell id="rmp42HP78Bf8SFEeft3H-17" value="Чтение фанфиков" style="ellipse;whiteSpace=wrap;html=1;" vertex="1" parent="1">
          <mxGeometry x="230" y="435" width="120" height="80" as="geometry" />
        </mxCell>
        <mxCell id="rmp42HP78Bf8SFEeft3H-18" value="Чтение чат фанфиков" style="ellipse;whiteSpace=wrap;html=1;" vertex="1" parent="1">
          <mxGeometry x="200" y="570" width="120" height="80" as="geometry" />
        </mxCell>
        <mxCell id="rmp42HP78Bf8SFEeft3H-19" value="" style="endArrow=classic;html=1;rounded=0;exitX=0;exitY=0.3333333333333333;exitDx=0;exitDy=0;exitPerimeter=0;entryX=1;entryY=0;entryDx=0;entryDy=0;" edge="1" parent="1" source="rmp42HP78Bf8SFEeft3H-1" target="rmp42HP78Bf8SFEeft3H-18">
          <mxGeometry width="50" height="50" relative="1" as="geometry">
            <mxPoint x="439" y="555" as="sourcePoint" />
            <mxPoint x="520" y="565" as="targetPoint" />
          </mxGeometry>
        </mxCell>
        <mxCell id="rmp42HP78Bf8SFEeft3H-20" value="" style="endArrow=classic;html=1;rounded=0;exitX=0;exitY=0.3333333333333333;exitDx=0;exitDy=0;exitPerimeter=0;" edge="1" parent="1" source="rmp42HP78Bf8SFEeft3H-1" target="rmp42HP78Bf8SFEeft3H-17">
          <mxGeometry width="50" height="50" relative="1" as="geometry">
            <mxPoint x="400" y="550" as="sourcePoint" />
            <mxPoint x="312" y="592" as="targetPoint" />
          </mxGeometry>
        </mxCell>
        <mxCell id="rmp42HP78Bf8SFEeft3H-21" value="" style="endArrow=open;html=1;rounded=0;endFill=0;exitX=0;exitY=1;exitDx=0;exitDy=0;entryX=0.675;entryY=0.02;entryDx=0;entryDy=0;entryPerimeter=0;" edge="1" parent="1" source="rmp42HP78Bf8SFEeft3H-10" target="rmp42HP78Bf8SFEeft3H-4">
          <mxGeometry width="50" height="50" relative="1" as="geometry">
            <mxPoint x="520" y="520" as="sourcePoint" />
            <mxPoint x="570" y="470" as="targetPoint" />
          </mxGeometry>
        </mxCell>
        <mxCell id="rmp42HP78Bf8SFEeft3H-22" value="" style="endArrow=open;html=1;rounded=0;endFill=0;exitX=0.022;exitY=0.415;exitDx=0;exitDy=0;entryX=0.988;entryY=0.41;entryDx=0;entryDy=0;entryPerimeter=0;exitPerimeter=0;" edge="1" parent="1" source="rmp42HP78Bf8SFEeft3H-11" target="rmp42HP78Bf8SFEeft3H-4">
          <mxGeometry width="50" height="50" relative="1" as="geometry">
            <mxPoint x="648" y="488" as="sourcePoint" />
            <mxPoint x="601" y="527" as="targetPoint" />
          </mxGeometry>
        </mxCell>
        <mxCell id="rmp42HP78Bf8SFEeft3H-23" value="" style="endArrow=open;html=1;rounded=0;endFill=0;exitX=0.342;exitY=-0.011;exitDx=0;exitDy=0;entryX=0.917;entryY=0.813;entryDx=0;entryDy=0;entryPerimeter=0;exitPerimeter=0;" edge="1" parent="1" source="rmp42HP78Bf8SFEeft3H-12" target="rmp42HP78Bf8SFEeft3H-4">
          <mxGeometry width="50" height="50" relative="1" as="geometry">
            <mxPoint x="663" y="548" as="sourcePoint" />
            <mxPoint x="639" y="558" as="targetPoint" />
          </mxGeometry>
        </mxCell>
        <mxCell id="rmp42HP78Bf8SFEeft3H-24" value="Редактирование&amp;nbsp;&lt;div&gt;фанфика&lt;/div&gt;" style="ellipse;whiteSpace=wrap;html=1;" vertex="1" parent="1">
          <mxGeometry x="567" y="727" width="120" height="80" as="geometry" />
        </mxCell>
        <mxCell id="rmp42HP78Bf8SFEeft3H-25" value="Удаление фанфика" style="ellipse;whiteSpace=wrap;html=1;" vertex="1" parent="1">
          <mxGeometry x="440" y="794" width="120" height="80" as="geometry" />
        </mxCell>
        <mxCell id="rmp42HP78Bf8SFEeft3H-26" value="Добавление фанфика" style="ellipse;whiteSpace=wrap;html=1;" vertex="1" parent="1">
          <mxGeometry x="312" y="740" width="120" height="80" as="geometry" />
        </mxCell>
        <mxCell id="rmp42HP78Bf8SFEeft3H-27" value="" style="endArrow=open;html=1;rounded=0;endFill=0;exitX=0;exitY=0;exitDx=0;exitDy=0;entryX=1;entryY=1;entryDx=0;entryDy=0;" edge="1" parent="1" source="rmp42HP78Bf8SFEeft3H-24" target="rmp42HP78Bf8SFEeft3H-13">
          <mxGeometry width="50" height="50" relative="1" as="geometry">
            <mxPoint x="467" y="837" as="sourcePoint" />
            <mxPoint x="538" y="834" as="targetPoint" />
          </mxGeometry>
        </mxCell>
        <mxCell id="rmp42HP78Bf8SFEeft3H-28" value="" style="endArrow=open;html=1;rounded=0;endFill=0;exitX=0.5;exitY=0;exitDx=0;exitDy=0;entryX=0.449;entryY=0.984;entryDx=0;entryDy=0;entryPerimeter=0;" edge="1" parent="1" source="rmp42HP78Bf8SFEeft3H-25" target="rmp42HP78Bf8SFEeft3H-13">
          <mxGeometry width="50" height="50" relative="1" as="geometry">
            <mxPoint x="595" y="805" as="sourcePoint" />
            <mxPoint x="576" y="865" as="targetPoint" />
          </mxGeometry>
        </mxCell>
        <mxCell id="rmp42HP78Bf8SFEeft3H-29" value="" style="endArrow=open;html=1;rounded=0;endFill=0;entryX=0;entryY=0.5;entryDx=0;entryDy=0;" edge="1" parent="1" source="rmp42HP78Bf8SFEeft3H-26" target="rmp42HP78Bf8SFEeft3H-13">
          <mxGeometry width="50" height="50" relative="1" as="geometry">
            <mxPoint x="610" y="865" as="sourcePoint" />
            <mxPoint x="567" y="897" as="targetPoint" />
          </mxGeometry>
        </mxCell>
      </root>
    </mxGraphModel>
  </diagram>
  <diagram id="ejrjoZr_K531WTlYZ4sd" name="Страница — 2">
    <mxGraphModel dx="1999" dy="615" grid="1" gridSize="10" guides="1" tooltips="1" connect="1" arrows="1" fold="1" page="1" pageScale="1" pageWidth="827" pageHeight="1169" math="0" shadow="0">
      <root>
        <mxCell id="0" />
        <mxCell id="1" parent="0" />
        <mxCell id="XH33psUewjldEAWDgZSC-1" value="FictionCraft" style="strokeWidth=1;shadow=0;dashed=0;align=center;html=1;shape=mxgraph.mockup.containers.window;align=left;verticalAlign=top;spacingLeft=8;strokeColor2=#008cff;strokeColor3=#c4c4c4;fontColor=#666666;mainText=;fontSize=17;labelBackgroundColor=none;whiteSpace=wrap;" vertex="1" parent="1">
          <mxGeometry x="80" y="120" width="680" height="440" as="geometry" />
        </mxCell>
        <mxCell id="XH33psUewjldEAWDgZSC-2" value="" style="ellipse;whiteSpace=wrap;html=1;" vertex="1" parent="1">
          <mxGeometry x="130" y="158.75" width="58.75" height="51.25" as="geometry" />
        </mxCell>
        <mxCell id="XH33psUewjldEAWDgZSC-3" value="&lt;font style=&quot;font-size: 14px;&quot;&gt;Nickname&lt;/font&gt;" style="text;html=1;align=center;verticalAlign=middle;whiteSpace=wrap;rounded=0;fontSize=13;" vertex="1" parent="1">
          <mxGeometry x="128.75" y="210" width="60" height="30" as="geometry" />
        </mxCell>
        <mxCell id="XH33psUewjldEAWDgZSC-12" value="" style="endArrow=none;html=1;rounded=0;entryX=0.238;entryY=0.063;entryDx=0;entryDy=0;entryPerimeter=0;exitX=0.232;exitY=1.002;exitDx=0;exitDy=0;exitPerimeter=0;" edge="1" parent="1" source="XH33psUewjldEAWDgZSC-1" target="XH33psUewjldEAWDgZSC-1">
          <mxGeometry width="50" height="50" relative="1" as="geometry">
            <mxPoint x="224.36000000000007" y="547.44" as="sourcePoint" />
            <mxPoint x="239.99999999999994" y="139.99999999999994" as="targetPoint" />
          </mxGeometry>
        </mxCell>
        <mxCell id="XH33psUewjldEAWDgZSC-20" value="" style="rounded=0;whiteSpace=wrap;html=1;" vertex="1" parent="1">
          <mxGeometry x="200" y="40" width="40" height="40" as="geometry" />
        </mxCell>
        <mxCell id="XH33psUewjldEAWDgZSC-21" value="" style="sketch=0;pointerEvents=1;shadow=0;dashed=0;html=1;strokeColor=none;fillColor=#505050;labelPosition=center;verticalLabelPosition=bottom;verticalAlign=top;outlineConnect=0;align=center;shape=mxgraph.office.concepts.book_journal;" vertex="1" parent="1">
          <mxGeometry x="145" y="40" width="40" height="40" as="geometry" />
        </mxCell>
        <mxCell id="XH33psUewjldEAWDgZSC-23" value="" style="sketch=0;pointerEvents=1;shadow=0;dashed=0;html=1;strokeColor=none;fillColor=#505050;labelPosition=center;verticalLabelPosition=bottom;verticalAlign=top;outlineConnect=0;align=center;shape=mxgraph.office.concepts.address_book;" vertex="1" parent="1">
          <mxGeometry x="-130" y="133.75" width="38.75" height="25" as="geometry" />
        </mxCell>
        <mxCell id="XH33psUewjldEAWDgZSC-24" value="" style="whiteSpace=wrap;html=1;shape=mxgraph.basic.oval_callout" vertex="1" parent="1">
          <mxGeometry x="101.25" y="320" width="43.75" height="40" as="geometry" />
        </mxCell>
        <mxCell id="XH33psUewjldEAWDgZSC-26" value="" style="strokeColor=#999999;verticalLabelPosition=bottom;shadow=0;dashed=0;verticalAlign=top;strokeWidth=2;html=1;shape=mxgraph.mockup.misc.trashcanIcon;" vertex="1" parent="1">
          <mxGeometry x="414" y="30" width="50" height="50" as="geometry" />
        </mxCell>
        <mxCell id="XH33psUewjldEAWDgZSC-27" value="&lt;font style=&quot;font-size: 14px;&quot;&gt;Мои фанфики&lt;/font&gt;" style="text;html=1;align=center;verticalAlign=middle;whiteSpace=wrap;rounded=0;" vertex="1" parent="1">
          <mxGeometry x="-290" y="110" width="100" height="35" as="geometry" />
        </mxCell>
        <mxCell id="XH33psUewjldEAWDgZSC-28" value="&lt;font style=&quot;font-size: 14px;&quot;&gt;Чат-фанфики&lt;/font&gt;" style="text;html=1;align=center;verticalAlign=middle;whiteSpace=wrap;rounded=0;" vertex="1" parent="1">
          <mxGeometry x="-110" y="290" width="100" height="30" as="geometry" />
        </mxCell>
      </root>
    </mxGraphModel>
  </diagram>
</mxfile>
